<svg width="425" height="377" viewBox="0 0 425 377" fill="none" xmlns="http://www.w3.org/2000/svg">
<path d="M205.372 376.767C318.796 376.767 410.744 365.151 410.744 350.822C410.744 336.493 318.796 324.877 205.372 324.877C91.9481 324.877 0 336.493 0 350.822C0 365.151 91.9481 376.767 205.372 376.767Z" fill="#E4E8EC"/>
<path d="M248.639 353.347H66.8762C52.2256 353.347 40.3154 340.375 40.3154 324.418V254.39C40.3154 246.009 43.6882 238.031 49.5906 232.578L90.6966 194.407H198.31L239.416 232.578C245.266 238.031 248.691 246.009 248.691 254.39V353.347H248.639Z" fill="#FF901B"/>
<path d="M248.639 353.347H66.8762C52.2256 353.347 40.3154 340.375 40.3154 324.418V254.39C40.3154 246.009 43.6882 238.031 49.5906 232.578L90.6966 194.407H198.31L239.416 232.578C245.266 238.031 248.691 246.009 248.691 254.39V353.347H248.639Z" fill="#0D46FC"/>
<path d="M40.3154 309.781V324.418C40.3154 340.375 52.2256 353.347 66.8762 353.347H248.639V338.71H66.8762C52.2256 338.71 40.3154 325.738 40.3154 309.781Z" fill="#0D46FC"/>
<path d="M239.363 232.52L198.257 194.349H182.237L223.343 232.52C229.192 237.973 232.618 245.952 232.618 254.332V353.347H248.639V254.39C248.639 245.952 245.266 237.973 239.363 232.52Z" fill="#0D46FC"/>
<path d="M107.403 206.403L144.293 235.103L181.183 206.403H107.403Z" fill="#FFF4E4"/>
<path d="M248.639 353.347H66.8762C52.2256 353.347 40.3154 340.375 40.3154 324.418V254.39C40.3154 246.009 43.6882 238.031 49.5906 232.578L90.6966 194.407H198.31L239.416 232.578C245.266 238.031 248.691 246.009 248.691 254.39V353.347H248.639Z" stroke="#171819" stroke-width="6" stroke-miterlimit="10" stroke-linecap="round" stroke-linejoin="round"/>
<path d="M147.296 312.249H105.979V353.347H147.296V312.249Z" fill="#FFDEC5"/>
<path d="M147.296 344.278H105.979V353.347H147.296V344.278Z" fill="#EFB58E"/>
<path d="M147.296 312.249H105.979V353.347H147.296V312.249Z" stroke="#171819" stroke-width="6" stroke-miterlimit="10" stroke-linecap="round" stroke-linejoin="round"/>
<path d="M76.8364 207.551L111.618 260.359C111.618 260.359 120.577 230.511 144.292 235.103C110.037 207.551 107.402 206.403 107.402 206.403" stroke="#171819" stroke-width="6" stroke-miterlimit="10" stroke-linecap="round" stroke-linejoin="round"/>
<path d="M211.959 206.92L177.177 259.728C177.177 259.728 168.218 229.88 144.503 234.472C178.758 206.92 181.393 205.772 181.393 205.772" stroke="#171819" stroke-width="6" stroke-miterlimit="10" stroke-linecap="round" stroke-linejoin="round"/>
<path d="M144.292 235.103V331.478" stroke="#171819" stroke-width="6" stroke-miterlimit="10" stroke-linecap="round" stroke-linejoin="round"/>
<path d="M157.204 266.673C159.096 266.673 160.63 265.003 160.63 262.942C160.63 260.882 159.096 259.211 157.204 259.211C155.312 259.211 153.779 260.882 153.779 262.942C153.779 265.003 155.312 266.673 157.204 266.673Z" fill="#171819"/>
<path d="M157.204 290.781C159.096 290.781 160.63 289.111 160.63 287.05C160.63 284.99 159.096 283.319 157.204 283.319C155.312 283.319 153.779 284.99 153.779 287.05C153.779 289.111 155.312 290.781 157.204 290.781Z" fill="#171819"/>
<path d="M278.045 354.266H139.655C134.332 354.266 130.063 349.559 130.063 343.819V341.925C130.063 336.127 134.385 331.478 139.655 331.478H287.636V343.819C287.636 349.616 283.315 354.266 278.045 354.266Z" fill="#B0AEFA"/>
<path d="M278.045 354.266H139.655C134.332 354.266 130.063 349.559 130.063 343.819V341.925C130.063 336.127 134.385 331.478 139.655 331.478H287.636V343.819C287.636 349.616 283.315 354.266 278.045 354.266Z" stroke="#171819" stroke-width="6" stroke-miterlimit="10" stroke-linecap="round" stroke-linejoin="round"/>
<path d="M379.651 354.323H247.479C241.419 354.323 236.886 348.181 238.204 341.753L263.026 220.983C265.081 210.995 272.722 203.935 281.471 203.935H405.421C415.645 203.935 423.181 215.186 420.809 226.838L398.096 337.275C396.04 347.263 388.399 354.323 379.651 354.323Z" fill="#FFF4E4"/>
<path d="M379.651 354.323H247.479C241.419 354.323 236.886 348.181 238.204 341.753L263.026 220.983C265.081 210.995 272.722 203.935 281.471 203.935H405.421C415.645 203.935 423.181 215.186 420.809 226.838L398.096 337.275C396.04 347.263 388.399 354.323 379.651 354.323Z" fill="#DCDBFF"/>
<path d="M385.975 349.042H253.75C247.69 349.042 243.158 342.901 244.475 336.472L269.297 215.702C270.087 211.914 271.668 208.527 273.829 205.772C268.506 208.527 264.449 214.038 263.026 220.926L238.204 341.695C236.886 348.124 241.366 354.266 247.479 354.266H379.651C385.079 354.266 390.085 351.568 393.564 347.148C391.245 348.354 388.662 349.042 385.975 349.042Z" fill="#B0AEFA"/>
<path d="M248.849 341.695L273.671 220.926C275.726 210.938 283.368 203.878 292.116 203.878H281.471C272.722 203.878 265.081 210.938 263.026 220.926L238.204 341.695C236.886 348.124 241.366 354.266 247.479 354.266H258.125C252.064 354.323 247.532 348.181 248.849 341.695Z" fill="#B0AEFA"/>
<path d="M379.651 354.323H247.479C241.419 354.323 236.886 348.181 238.204 341.753L263.026 220.983C265.081 210.995 272.722 203.935 281.471 203.935H405.421C415.645 203.935 423.181 215.186 420.809 226.838L398.096 337.275C396.04 347.263 388.399 354.323 379.651 354.323Z" stroke="#171819" stroke-width="6" stroke-miterlimit="10" stroke-linecap="round" stroke-linejoin="round"/>
<path d="M340.6 269.199C340.653 268.281 340.864 267.362 341.074 266.501C340.126 266.214 339.124 266.099 338.123 266.157C331.167 266.444 324.421 273.504 323.051 281.999C321.681 290.494 326.213 297.153 333.169 296.923C339.81 296.694 346.239 290.207 348.031 282.286C343.235 280.392 340.073 275.169 340.6 269.199Z" fill="white"/>
<path d="M171.96 319.309H179.602C182.711 319.309 185.188 322.064 185.188 325.394C185.188 328.78 182.658 331.478 179.602 331.478H163.054" fill="#FFDEC5"/>
<path d="M169.589 319.309H179.602C182.711 319.309 185.188 322.064 185.188 325.394C185.188 328.78 182.658 331.478 179.602 331.478H163.054" stroke="#171819" stroke-width="6" stroke-miterlimit="10" stroke-linecap="round" stroke-linejoin="round"/>
<path d="M139.55 312.249H166.637C171.538 312.249 175.491 316.554 175.491 321.892C175.491 327.23 171.538 331.535 166.637 331.535H139.655" fill="#FFDEC5"/>
<path d="M139.55 312.249H166.637C171.538 312.249 175.491 316.554 175.491 321.892C175.491 327.23 171.538 331.535 166.637 331.535H139.655" stroke="#171819" stroke-width="6" stroke-miterlimit="10" stroke-linecap="round" stroke-linejoin="round"/>
<path d="M144.82 319.309H156.203C159.312 319.309 161.789 322.064 161.789 325.394C161.789 328.78 159.259 331.478 156.203 331.478H139.655" stroke="#171819" stroke-width="6" stroke-miterlimit="10" stroke-linecap="round" stroke-linejoin="round"/>
<path d="M84.1091 303.122H105.98V353.347" stroke="#171819" stroke-width="6" stroke-miterlimit="10" stroke-linecap="round" stroke-linejoin="round"/>
<path d="M144.977 213.865H142.29C104.82 213.865 74.4648 191.709 74.4648 150.898V59.0002H212.802V150.898C212.802 191.709 182.447 213.865 144.977 213.865Z" fill="#FFDEC5"/>
<path d="M74.7285 78.344C74.7285 78.344 86.9549 101.304 120.525 102.624C171.855 104.576 192.144 75.7036 192.144 75.7036L74.7285 78.344Z" fill="#0A192F"/>
<path d="M144.977 203.935H142.29C104.82 203.935 74.4648 184.075 74.4648 143.263V150.898C74.4648 191.709 104.82 213.865 142.29 213.865H144.977C182.447 213.865 212.802 191.709 212.802 150.898V143.263C212.802 184.075 182.447 203.935 144.977 203.935Z" fill="#0A192F"/>
<path d="M144.977 213.865H142.29C104.82 213.865 74.4648 191.709 74.4648 150.898V59.0002H212.802V150.898C212.802 191.709 182.447 213.865 144.977 213.865Z" stroke="#171819" stroke-width="6" stroke-miterlimit="10" stroke-linecap="round" stroke-linejoin="round"/>
<path d="M93.1735 104.231C86.3225 130.061 74.7285 124.321 74.7285 124.321V55.4414H94.2275C94.2275 55.4414 97.5476 87.7002 93.1735 104.231Z" fill="#0A192F"/>
<path d="M94.6491 96.1954C95.3342 90.4554 95.4923 83.9118 95.4396 77.8848L74.7285 78.344C74.7285 78.344 80.4201 89.0204 94.6491 96.1954Z" fill="#0A192F"/>
<path d="M93.1735 104.231C86.3225 130.061 74.7285 124.321 74.7285 124.321V55.4414H94.2275C94.2275 55.4414 97.5476 87.7002 93.1735 104.231Z" stroke="#171819" stroke-width="6" stroke-miterlimit="10" stroke-linecap="round" stroke-linejoin="round"/>
<path d="M195.728 21.1741C185.715 11.3013 170.801 2.40427 149.984 3.03567C149.721 7.51287 152.619 17.2135 157.889 21.9777C138.074 1.88767 95.4395 1.71548 81.7375 16.7543C83.7401 23.6997 89.379 32.5967 98.1272 37.1887C73.2001 30.9321 55.8091 44.4211 54.3862 49.2427C58.7603 61.1245 68.6679 73.3507 74.7284 78.3445C95.176 95.0479 151.618 101.534 186.61 79.4351C188.613 78.1723 190.458 76.9095 192.144 75.7041C191.933 85.4047 192.302 96.5403 194.357 104.289C201.208 130.119 212.802 124.379 212.802 124.379V63.4779C212.802 47.4059 206.689 31.9653 195.728 21.1741Z" fill="#0A192F"/>
<path d="M157.889 22.0346C156.624 20.083 153.251 18.4758 147.823 14.4004C126.164 2.17424 93.4369 3.89624 81.7375 16.7538C82.001 17.7296 82.3699 18.7628 82.7915 19.796C98.3907 8.83263 131.75 8.08643 150.88 23.6992C153.357 25.7082 157.889 25.4212 157.889 22.0346Z" fill="#0A192F"/>
<path d="M98.338 38.1066C98.338 37.7048 98.2326 37.4178 98.1272 37.1882C97.1259 36.9586 93.4896 36.5568 85.7954 35.581C67.6139 35.4088 55.5456 45.2816 54.3862 49.2996C54.597 49.931 54.8605 50.5624 55.124 51.1938C61.2372 45.8556 76.0986 38.738 94.0166 42.2394C96.3354 42.6412 98.4961 40.6896 98.338 38.1066Z" fill="#0A192F"/>
<path d="M195.728 21.1736C185.715 11.3008 170.8 2.40384 149.984 3.03524C149.879 4.64244 150.195 6.88104 150.88 9.34924C165.794 9.69364 178.758 15.5484 186.347 24.0436C201.103 40.5748 192.355 65.0272 185.873 73.752C178.02 84.3136 173.277 86.093 173.277 86.093C173.277 86.093 188.929 81.214 192.091 75.6462C189.456 90.685 195.991 122.542 210.062 124.838C211.748 124.838 212.802 124.321 212.802 124.321V63.4774C212.802 47.4054 206.689 31.9648 195.728 21.1736Z" fill="#0A192F"/>
<path d="M201.314 27.3154C191.564 15.3188 175.069 2.23164 149.984 3.03524C149.721 7.51244 152.619 17.213 157.889 21.9772C138.074 1.88724 95.4395 1.71504 81.7375 16.7538C83.7401 23.6992 89.379 32.5962 98.1272 37.1882C73.2001 30.9316 55.8091 44.4206 54.3862 49.2422C58.7603 61.124 68.6679 73.3502 74.7284 78.344C95.176 95.0474 151.618 101.534 186.61 79.4346C188.613 78.1718 190.458 76.909 192.144 75.7036C191.933 85.4042 192.302 96.5398 194.357 104.289C201.208 130.119 212.802 124.379 212.802 124.379V60.6074C212.802 48.3812 208.797 36.4994 201.314 27.3154Z" stroke="#171819" stroke-width="6" stroke-miterlimit="10" stroke-linecap="round" stroke-linejoin="round"/>
<path d="M202.42 65.0846C202.42 65.0846 196.413 72.2596 192.091 75.7036C187.612 79.2624 181.024 83.6822 172.118 86.6096" stroke="#171819" stroke-width="6" stroke-miterlimit="10" stroke-linecap="round" stroke-linejoin="round"/>
<path d="M109.668 125.642C116.098 124.436 122.738 124.436 129.167 125.642" stroke="#171819" stroke-width="6" stroke-miterlimit="10" stroke-linecap="round" stroke-linejoin="round"/>
<path d="M123.581 139.303C126.259 139.303 128.43 136.939 128.43 134.022C128.43 131.106 126.259 128.741 123.581 128.741C120.904 128.741 118.733 131.106 118.733 134.022C118.733 136.939 120.904 139.303 123.581 139.303Z" fill="#171819"/>
<path d="M159.417 125.642C165.847 124.436 172.487 124.436 178.916 125.642" stroke="#171819" stroke-width="6" stroke-miterlimit="10" stroke-linecap="round" stroke-linejoin="round"/>
<path d="M173.277 139.303C175.955 139.303 178.126 136.939 178.126 134.022C178.126 131.106 175.955 128.741 173.277 128.741C170.6 128.741 168.429 131.106 168.429 134.022C168.429 136.939 170.6 139.303 173.277 139.303Z" fill="#171819"/>
<path d="M135.755 156.121C137.494 159.393 140.762 161.574 144.503 161.574C148.192 161.574 151.46 159.393 153.252 156.121" stroke="#171819" stroke-width="6" stroke-miterlimit="10" stroke-linecap="round" stroke-linejoin="round"/>
<path d="M162.843 174.833C162.843 183.558 154.516 190.561 144.292 190.561C134.069 190.561 125.742 183.501 125.742 174.833H162.843Z" fill="white"/>
<path d="M162.843 174.833C162.843 183.558 154.516 190.561 144.292 190.561C134.069 190.561 125.742 183.501 125.742 174.833H162.843Z" stroke="#171819" stroke-width="6" stroke-miterlimit="10" stroke-linecap="round" stroke-linejoin="round"/>
<path d="M74.4648 102.624C74.4648 102.624 62.1331 101.648 62.1331 115.252C62.1331 129.774 65.2424 138.729 74.4648 139.073V102.624Z" fill="#FFDEC5"/>
<path d="M74.4648 102.624C74.4648 102.624 62.1331 101.648 62.1331 115.252C62.1331 129.774 65.2424 138.729 74.4648 139.073V102.624Z" stroke="#171819" stroke-width="6" stroke-miterlimit="10" stroke-linecap="round" stroke-linejoin="round"/>
<path d="M212.802 102.624C212.802 102.624 225.134 101.648 225.134 115.252C225.134 129.774 222.025 138.729 212.802 139.073V102.624Z" fill="#FFDEC5"/>
<path d="M212.802 102.624C212.802 102.624 225.134 101.648 225.134 115.252C225.134 129.774 222.025 138.729 212.802 139.073V102.624Z" stroke="#171819" stroke-width="6" stroke-miterlimit="10" stroke-linecap="round" stroke-linejoin="round"/>
</svg>
